<mxfile host="app.diagrams.net" modified="2022-11-25T12:26:31.572Z" agent="5.0 (Windows NT 10.0; Win64; x64) AppleWebKit/537.36 (KHTML, like Gecko) Chrome/107.0.0.0 Safari/537.36" version="20.6.0" etag="W0QAEsNHus0Ds0ek418b" type="github">
  <diagram id="YeD7_pW0yQ2eaK4uC75K" name="第 1 页">
    <mxGraphModel dx="870" dy="594" grid="1" gridSize="10" guides="1" tooltips="1" connect="1" arrows="1" fold="1" page="1" pageScale="1" pageWidth="827" pageHeight="1169" math="0" shadow="0">
      <root>
        <mxCell id="0" />
        <mxCell id="1" parent="0" />
        <mxCell id="Ixr9J2EMAPtid4X2BPQ--6" style="rounded=0;orthogonalLoop=1;jettySize=auto;html=1;exitX=1;exitY=0.25;exitDx=0;exitDy=0;entryX=0;entryY=0.5;entryDx=0;entryDy=0;shape=link;" edge="1" parent="1" source="Ixr9J2EMAPtid4X2BPQ--1" target="Ixr9J2EMAPtid4X2BPQ--5">
          <mxGeometry relative="1" as="geometry" />
        </mxCell>
        <mxCell id="Ixr9J2EMAPtid4X2BPQ--8" style="edgeStyle=none;rounded=0;orthogonalLoop=1;jettySize=auto;html=1;exitX=1;exitY=0.75;exitDx=0;exitDy=0;entryX=0;entryY=0.5;entryDx=0;entryDy=0;shape=link;" edge="1" parent="1" source="Ixr9J2EMAPtid4X2BPQ--1" target="Ixr9J2EMAPtid4X2BPQ--3">
          <mxGeometry relative="1" as="geometry" />
        </mxCell>
        <mxCell id="Ixr9J2EMAPtid4X2BPQ--18" style="rounded=0;orthogonalLoop=1;jettySize=auto;html=1;exitX=0.5;exitY=1;exitDx=0;exitDy=0;entryX=0.5;entryY=0;entryDx=0;entryDy=0;dashed=1;" edge="1" parent="1" source="Ixr9J2EMAPtid4X2BPQ--1" target="Ixr9J2EMAPtid4X2BPQ--2">
          <mxGeometry relative="1" as="geometry" />
        </mxCell>
        <mxCell id="Ixr9J2EMAPtid4X2BPQ--1" value="应用程序" style="rounded=0;whiteSpace=wrap;html=1;" vertex="1" parent="1">
          <mxGeometry x="150" y="220" width="120" height="60" as="geometry" />
        </mxCell>
        <mxCell id="Ixr9J2EMAPtid4X2BPQ--19" style="edgeStyle=none;rounded=0;orthogonalLoop=1;jettySize=auto;html=1;exitX=1;exitY=0.5;exitDx=0;exitDy=0;entryX=0;entryY=0.75;entryDx=0;entryDy=0;dashed=1;" edge="1" parent="1" source="Ixr9J2EMAPtid4X2BPQ--2" target="Ixr9J2EMAPtid4X2BPQ--3">
          <mxGeometry relative="1" as="geometry" />
        </mxCell>
        <mxCell id="Ixr9J2EMAPtid4X2BPQ--2" value="进程管理服务" style="rounded=0;whiteSpace=wrap;html=1;" vertex="1" parent="1">
          <mxGeometry x="150" y="330" width="120" height="60" as="geometry" />
        </mxCell>
        <mxCell id="Ixr9J2EMAPtid4X2BPQ--14" style="rounded=0;orthogonalLoop=1;jettySize=auto;html=1;exitX=1;exitY=0.5;exitDx=0;exitDy=0;entryX=0;entryY=0.75;entryDx=0;entryDy=0;shape=link;" edge="1" parent="1" source="Ixr9J2EMAPtid4X2BPQ--3" target="Ixr9J2EMAPtid4X2BPQ--4">
          <mxGeometry relative="1" as="geometry" />
        </mxCell>
        <mxCell id="Ixr9J2EMAPtid4X2BPQ--3" value="fat32 服务 (sda1)" style="rounded=0;whiteSpace=wrap;html=1;" vertex="1" parent="1">
          <mxGeometry x="340" y="270" width="120" height="60" as="geometry" />
        </mxCell>
        <mxCell id="Ixr9J2EMAPtid4X2BPQ--4" value="sdcard 驱动服务" style="rounded=0;whiteSpace=wrap;html=1;" vertex="1" parent="1">
          <mxGeometry x="530" y="170" width="120" height="60" as="geometry" />
        </mxCell>
        <mxCell id="Ixr9J2EMAPtid4X2BPQ--7" style="edgeStyle=none;rounded=0;orthogonalLoop=1;jettySize=auto;html=1;exitX=1;exitY=0.5;exitDx=0;exitDy=0;entryX=0;entryY=0.5;entryDx=0;entryDy=0;shape=link;" edge="1" parent="1" source="Ixr9J2EMAPtid4X2BPQ--5" target="Ixr9J2EMAPtid4X2BPQ--4">
          <mxGeometry relative="1" as="geometry" />
        </mxCell>
        <mxCell id="Ixr9J2EMAPtid4X2BPQ--5" value="fat32 服务 (sda1)" style="rounded=0;whiteSpace=wrap;html=1;fillColor=#CCCCCC;" vertex="1" parent="1">
          <mxGeometry x="340" y="170" width="120" height="60" as="geometry" />
        </mxCell>
        <mxCell id="Ixr9J2EMAPtid4X2BPQ--11" value="" style="shape=image;html=1;verticalAlign=top;verticalLabelPosition=bottom;labelBackgroundColor=#ffffff;imageAspect=0;aspect=fixed;image=https://cdn4.iconfinder.com/data/icons/ui-office/512/User_Interface-49-128.png;fillColor=#CCCCCC;" vertex="1" parent="1">
          <mxGeometry x="450" y="220" width="28" height="28" as="geometry" />
        </mxCell>
        <mxCell id="Ixr9J2EMAPtid4X2BPQ--16" value="" style="shape=image;html=1;verticalAlign=top;verticalLabelPosition=bottom;labelBackgroundColor=#ffffff;imageAspect=0;aspect=fixed;image=https://cdn4.iconfinder.com/data/icons/ui-office/512/User_Interface-49-128.png;fillColor=#CCCCCC;" vertex="1" parent="1">
          <mxGeometry x="291" y="205" width="28" height="28" as="geometry" />
        </mxCell>
      </root>
    </mxGraphModel>
  </diagram>
</mxfile>
